<?xml version="1.0" encoding="UTF-8"?>
<svg width="48px" height="48px" viewBox="0 0 48 48" version="1.1" xmlns="http://www.w3.org/2000/svg" xmlns:xlink="http://www.w3.org/1999/xlink">
    <title>icon/48px/warning</title>
    <defs>
        <linearGradient x1="100%" y1="0%" x2="0%" y2="100%" id="linearGradient-1">
            <stop stop-color="#FFC573" offset="0%"></stop>
            <stop stop-color="#FFBF00" offset="100%"></stop>
        </linearGradient>
    </defs>
    <g id="icon/48px/warning" stroke="none" stroke-width="1" fill="none" fill-rule="evenodd">
        <path d="M24,0 C37.254834,0 48,10.745166 48,24 C48,37.254834 37.254834,48 24,48 C10.745166,48 0,37.254834 0,24 C0,10.745166 10.745166,0 24,0 Z M24,32 C22.3431458,32 21,33.3431458 21,35 C21,36.6568542 22.3431458,38 24,38 C25.6568542,38 27,36.6568542 27,35 C27,33.3431458 25.6568542,32 24,32 Z M24,9 C22.8954305,9 22,9.8954305 22,11 L22,11 L22,26 C22,27.1045695 22.8954305,28 24,28 C25.1045695,28 26,27.1045695 26,26 L26,26 L26,11 C26,9.8954305 25.1045695,9 24,9 Z" id="形状结合" fill="url(#linearGradient-1)"></path>
    </g>
</svg>